<svg width="101" height="92" viewBox="0 0 101 92" fill="none" xmlns="http://www.w3.org/2000/svg">
<ellipse cx="50.0001" cy="70" rx="13" ry="42" transform="rotate(-90 50.0001 70)" stroke="#DA2338" stroke-width="16"/>
<ellipse cx="32.9775" cy="33.3897" rx="32.9775" ry="33.3897" transform="matrix(4.37114e-08 -1 -1 -4.37114e-08 83.7794 89.955)" fill="#413EEA"/>
<path fill-rule="evenodd" clip-rule="evenodd" d="M82.3512 67.2264C77.9988 80.4421 65.4251 89.9943 50.5924 89.9943C32.1518 89.9943 17.2027 75.2298 17.2027 57.0168C17.2027 48.2823 20.6409 40.3408 26.2536 34.4407C25.1949 37.6554 24.6226 41.0868 24.6226 44.6503C24.6226 62.8632 39.5717 77.6278 58.0123 77.6278C67.6092 77.6278 76.2605 73.629 82.3512 67.2264Z" fill="#3A37DC"/>
<path fill-rule="evenodd" clip-rule="evenodd" d="M20.0951 23.3699C21.2976 26.3406 23.2446 28.7861 25.6339 30.5783L37.6694 39.9694C42.5247 43.7579 49.6605 40.8695 50.5136 34.7704L52.6283 19.6518C53.0983 16.7023 52.7961 13.5909 51.5937 10.6203C48.0729 1.92202 38.1678 -2.27498 29.4696 1.24579C20.7713 4.76657 16.5743 14.6716 20.0951 23.3699ZM35.9801 24.5475C31.4268 24.5475 27.7357 20.8564 27.7357 16.3031C27.7357 11.7499 31.4268 8.05876 35.9801 8.05876C40.5333 8.05876 44.2245 11.7499 44.2245 16.3031C44.2245 20.8564 40.5333 24.5475 35.9801 24.5475Z" fill="#FF364D"/>
<path fill-rule="evenodd" clip-rule="evenodd" d="M1.11866 65C0.431711 66.5042 0 68.2134 0 70.133C0 75.6924 3.62083 79.4865 6.57611 81.6492C9.69931 83.9347 13.7054 85.6582 17.936 86.9677C26.4943 89.6167 37.8289 91.133 50 91.133C62.171 91.133 73.5057 89.6167 82.064 86.9677C86.2946 85.6582 90.3007 83.9347 93.4239 81.6492C96.3792 79.4865 100 75.6924 100 70.133C100 68.3446 99.6253 66.739 99.0186 65.3115C93.874 67.1311 87.6818 68.6589 80.734 69.8042C80.9975 69.9148 81.2477 70.0245 81.4849 70.133C80.3882 70.6346 79.0128 71.1632 77.333 71.6831C70.6903 73.7392 61.0249 75.133 50 75.133C38.9751 75.133 29.3097 73.7392 22.667 71.6831C20.9872 71.1632 19.6118 70.6346 18.5151 70.133C18.8372 69.9857 19.1833 69.8361 19.554 69.685C12.5048 68.4875 6.25574 66.8936 1.11866 65ZM15.443 72.0266C15.4405 72.0264 15.4573 72.0042 15.5009 71.9604C15.4673 72.0049 15.4455 72.0268 15.443 72.0266ZM84.557 72.0266C84.5545 72.0268 84.5328 72.0049 84.4991 71.9604C84.5427 72.0042 84.5595 72.0264 84.557 72.0266Z" fill="#FF364D"/>
<path d="M13.7136 63.4538C9.91458 65.4713 7.9414 67.7684 8.00145 70.1035C8.0615 72.4386 10.1526 74.7256 14.0549 76.7242C17.9572 78.7227 23.5268 80.359 30.1782 81.4611C36.8296 82.5632 44.3173 83.0904 51.8544 82.9873C59.3916 82.8842 66.6998 82.1546 73.0112 80.8752C79.3226 79.5958 84.404 77.8138 87.7216 75.7165C91.0391 73.6192 92.4702 71.284 91.8646 68.9563C91.2589 66.6287 88.6387 64.3945 84.2795 62.4885" stroke="#FF364D" stroke-width="16"/>
<circle cx="2.88553" cy="2.88553" r="2.88553" transform="matrix(-1 0 0 1 75.1376 54)" fill="black"/>
<circle cx="2.88553" cy="2.88553" r="2.88553" transform="matrix(-1 0 0 1 62.7711 54)" fill="black"/>
<path d="M70.191 63.8933C68.9543 67.1911 63.1833 67.1911 61.9466 63.8933" stroke="black" stroke-width="2.5" stroke-linecap="round" stroke-linejoin="round"/>
</svg>
