<svg width="195" height="32" viewBox="0 0 195 32" fill="none" xmlns="http://www.w3.org/2000/svg">
<path d="M114.333 15.9998C114.333 8.63984 108.36 2.6665 101 2.6665C93.64 2.6665 87.6667 8.63984 87.6667 15.9998C87.6667 22.4532 92.2534 27.8265 98.3334 29.0665V19.9998H95.6667V15.9998H98.3334V12.6665C98.3334 10.0932 100.427 7.99984 103 7.99984H106.333V11.9998H103.667C102.933 11.9998 102.333 12.5998 102.333 13.3332V15.9998H106.333V19.9998H102.333V29.2665C109.067 28.5998 114.333 22.9198 114.333 15.9998Z" fill="black"/>
<path d="M10.075 3.5835H20.925C25.0583 3.5835 28.4166 6.94183 28.4166 11.0752V21.9252C28.4166 23.9121 27.6273 25.8176 26.2224 27.2226C24.8174 28.6275 22.9119 29.4168 20.925 29.4168H10.075C5.94165 29.4168 2.58331 26.0585 2.58331 21.9252V11.0752C2.58331 9.08825 3.37261 7.18271 4.77757 5.77775C6.18253 4.37279 8.08807 3.5835 10.075 3.5835ZM9.81665 6.16683C8.58339 6.16683 7.40064 6.65674 6.5286 7.52878C5.65656 8.40083 5.16665 9.58357 5.16665 10.8168V22.1835C5.16665 24.7539 7.24623 26.8335 9.81665 26.8335H21.1833C22.4166 26.8335 23.5993 26.3436 24.4714 25.4715C25.3434 24.5995 25.8333 23.4168 25.8333 22.1835V10.8168C25.8333 8.24641 23.7537 6.16683 21.1833 6.16683H9.81665ZM22.2812 8.10433C22.7094 8.10433 23.1201 8.27444 23.4229 8.57723C23.7257 8.88002 23.8958 9.2907 23.8958 9.71891C23.8958 10.1471 23.7257 10.5578 23.4229 10.8606C23.1201 11.1634 22.7094 11.3335 22.2812 11.3335C21.853 11.3335 21.4423 11.1634 21.1395 10.8606C20.8368 10.5578 20.6666 10.1471 20.6666 9.71891C20.6666 9.2907 20.8368 8.88002 21.1395 8.57723C21.4423 8.27444 21.853 8.10433 22.2812 8.10433ZM15.5 10.0418C17.2128 10.0418 18.8555 10.7223 20.0667 11.9334C21.2779 13.1446 21.9583 14.7873 21.9583 16.5002C21.9583 18.213 21.2779 19.8557 20.0667 21.0669C18.8555 22.2781 17.2128 22.9585 15.5 22.9585C13.7871 22.9585 12.1444 22.2781 10.9332 21.0669C9.72208 19.8557 9.04165 18.213 9.04165 16.5002C9.04165 14.7873 9.72208 13.1446 10.9332 11.9334C12.1444 10.7223 13.7871 10.0418 15.5 10.0418ZM15.5 12.6252C14.4723 12.6252 13.4866 13.0334 12.7599 13.7601C12.0332 14.4868 11.625 15.4724 11.625 16.5002C11.625 17.5279 12.0332 18.5135 12.7599 19.2402C13.4866 19.9669 14.4723 20.3752 15.5 20.3752C16.5277 20.3752 17.5133 19.9669 18.24 19.2402C18.9667 18.5135 19.375 17.5279 19.375 16.5002C19.375 15.4724 18.9667 14.4868 18.24 13.7601C17.5133 13.0334 16.5277 12.6252 15.5 12.6252Z" fill="black"/>
<path d="M189.901 5.15283H193.581L185.541 14.3428L195 26.8458H187.594L181.794 19.2618L175.156 26.8458H171.474L180.074 17.0158L171 5.15383H178.594L183.837 12.0858L189.901 5.15283ZM188.61 24.6438H190.649L177.486 7.23983H175.298L188.61 24.6438Z" fill="black"/>
</svg>
